<svg width="56" height="23" viewBox="0 0 56 23" fill="none" xmlns="http://www.w3.org/2000/svg">
<path d="M15.9976 20.2563C18.6855 20.2563 20.2822 18.1543 20.2822 14.5947C20.2822 13.2544 20.0259 12.1265 19.5352 11.2549C18.8247 9.8999 17.6016 9.16748 16.0562 9.16748C13.7563 9.16748 12.1304 10.7129 12.1304 12.8809C12.1304 14.917 13.5952 16.3965 15.6094 16.3965C16.8472 16.3965 17.8506 15.8179 18.3486 14.8145H18.3706C18.3706 14.8145 18.3999 14.8145 18.4072 14.8145C18.4219 14.8145 18.4731 14.8145 18.4731 14.8145C18.4731 17.2314 17.5576 18.6743 16.0122 18.6743C15.104 18.6743 14.4009 18.1763 14.1592 17.3779H12.2769C12.5918 19.1138 14.064 20.2563 15.9976 20.2563ZM16.0635 14.895C14.8477 14.895 13.9834 14.0308 13.9834 12.8223C13.9834 11.6431 14.8916 10.7422 16.0708 10.7422C17.25 10.7422 18.1582 11.6577 18.1582 12.8516C18.1582 14.0308 17.272 14.895 16.0635 14.895ZM23.2668 18.8794C23.9626 18.8794 24.4386 18.3813 24.4386 17.7222C24.4386 17.0557 23.9626 16.5649 23.2668 16.5649C22.5783 16.5649 22.0949 17.0557 22.0949 17.7222C22.0949 18.3813 22.5783 18.8794 23.2668 18.8794ZM23.2668 13.3862C23.9626 13.3862 24.4386 12.8955 24.4386 12.2363C24.4386 11.5698 23.9626 11.0791 23.2668 11.0791C22.5783 11.0791 22.0949 11.5698 22.0949 12.2363C22.0949 12.8955 22.5783 13.3862 23.2668 13.3862ZM26.4637 12.522V12.5513H28.2362V12.522C28.2362 11.4453 28.9832 10.7202 30.0892 10.7202C31.1292 10.7202 31.8909 11.394 31.8909 12.3242C31.8909 13.0713 31.5321 13.6206 30.0892 15.0854L26.5662 18.689V20H33.9051V18.396H29.159V18.2715L31.3709 16.0522C33.1654 14.2798 33.744 13.3423 33.744 12.207C33.744 10.4419 32.2352 9.16748 30.1478 9.16748C27.9798 9.16748 26.4637 10.5444 26.4637 12.522ZM36.1426 20H38.1201L42.6392 11.0425V9.43115H35.2856V11.0205H40.7349V11.1377L36.1426 20Z" fill="black"/>
</svg>
